<?xml version="1.0" standalone="no"?>
<!DOCTYPE svg PUBLIC "-//W3C//DTD SVG 20010904//EN"
 "http://www.w3.org/TR/2001/REC-SVG-20010904/DTD/svg10.dtd">
<svg version="1.0" xmlns="http://www.w3.org/2000/svg"
 width="700.000000pt" height="700.000000pt" viewBox="0 0 700.000000 700.000000"
 preserveAspectRatio="xMidYMid meet">
<metadata>
Created by potrace 1.11, written by Peter Selinger 2001-2013
</metadata>
<g transform="translate(0.000000,700.000000) scale(0.100000,-0.100000)"
fill="#000000" stroke="none">
<path d="M1150 6985 c-174 -35 -327 -116 -453 -240 -137 -135 -234 -333 -253
-520 -5 -45 -9 -4805 -5 -4897 1 -15 142 -16 1968 -15 l1968 2 1 760 c1 418 2
762 3 765 1 7 133 4 195 -4 205 -28 402 -215 444 -421 6 -27 11 -158 12 -290
2 -275 4 -316 20 -403 57 -315 251 -588 522 -736 373 -205 860 -119 1161 205
112 120 180 241 234 414 l28 90 0 1675 0 1675 -22 84 c-29 107 -88 228 -151
311 -28 36 -311 326 -631 645 -422 422 -592 585 -622 599 -52 23 -122 24 -173
2 -53 -22 -239 -207 -266 -262 -25 -55 -26 -126 0 -182 13 -29 102 -125 289
-312 l269 -270 1 -463 c0 -492 3 -534 50 -658 76 -200 257 -375 461 -445 30
-10 57 -19 60 -19 63 -11 80 -18 81 -33 6 -92 2 -2190 -4 -2230 -33 -226 -285
-349 -482 -237 -73 42 -143 134 -159 210 -4 17 -7 160 -8 319 -1 278 -4 323
-29 446 -59 294 -250 575 -508 746 -197 132 -408 197 -656 203 -60 1 -112 5
-115 8 -3 2 -5 617 -6 1366 l0 1362 -23 90 c-42 167 -129 317 -250 433 -120
115 -241 178 -436 229 -16 4 -574 8 -1240 9 -967 2 -1223 0 -1275 -11z m2350
-1735 l0 -875 -1087 1 c-599 1 -1091 2 -1094 3 -10 2 -8 1735 2 1741 4 3 496
6 1093 6 l1086 0 0 -876z"/>
<path d="M173 869 c-71 -14 -136 -72 -158 -140 -14 -40 -16 -92 -13 -311 3
-231 5 -267 21 -296 28 -52 85 -99 133 -111 61 -16 4443 -15 4499 0 55 16 109
61 135 113 20 42 21 60 22 309 0 246 -1 268 -20 308 -34 71 -77 109 -142 125
-39 9 -4433 12 -4477 3z"/>
</g>
</svg>
